<?xml version="1.0" encoding="UTF-8"?>
<svg xmlns="http://www.w3.org/2000/svg" xmlns:xlink="http://www.w3.org/1999/xlink" width="750pt" height="749.999995pt" viewBox="0 0 750 749.999995" version="1.2">
<g id="surface1">
<path style=" stroke:none;fill-rule:nonzero;fill:rgb(67.059326%,10.978699%,13.328552%);fill-opacity:1;" d="M 749.925781 374.941406 C 749.925781 582.046875 582.050781 749.925781 374.941406 749.925781 C 167.832031 749.925781 -0.0429688 582.046875 -0.0429688 374.941406 C -0.0429688 313.539062 14.738281 255.609375 40.894531 204.40625 L 40.964844 204.183594 C 89.066406 110.34375 175.589844 39.339844 279.84375 12.148438 C 310.21875 4.167969 342.058594 -0.0429688 374.941406 -0.0429688 C 582.050781 -0.0429688 749.925781 167.832031 749.925781 374.941406 "/>
<path style=" stroke:none;fill-rule:nonzero;fill:rgb(85.879517%,13.729858%,14.509583%);fill-opacity:1;" d="M 603.035156 299.207031 C 603.035156 458.878906 473.652344 588.257812 313.980469 588.257812 C 154.3125 588.257812 24.929688 458.878906 24.929688 299.207031 C 24.929688 290.042969 25.375 281.027344 26.1875 272.089844 C 28.402344 248.589844 33.433594 225.910156 40.894531 204.40625 L 40.964844 204.183594 C 87.003906 114.335938 168.347656 45.402344 266.695312 15.84375 C 271.054688 14.515625 275.414062 13.332031 279.84375 12.148438 C 291.003906 10.820312 302.453125 10.15625 313.980469 10.15625 C 473.652344 10.15625 603.035156 139.53125 603.035156 299.207031 "/>
<path style=" stroke:none;fill-rule:nonzero;fill:rgb(90.19928%,31.369019%,32.548523%);fill-opacity:1;" d="M 251.324219 479.640625 C 134.4375 479.640625 38.160156 388.761719 26.1875 272.089844 C 28.402344 248.589844 33.433594 225.910156 40.894531 204.40625 L 40.964844 204.183594 C 87.003906 114.335938 168.347656 45.402344 266.695312 15.84375 C 384.621094 23.96875 477.792969 124.609375 477.792969 247.480469 C 477.792969 375.679688 376.417969 479.640625 251.324219 479.640625 "/>
<path style=" stroke:none;fill-rule:nonzero;fill:rgb(53.729248%,9.408569%,11.369324%);fill-opacity:1;" d="M 284.816406 114.261719 C 284.816406 114.261719 355.121094 143.375 319.667969 183.75 C 284.214844 224.132812 250.253906 221.523438 202.613281 209.925781 C 154.976562 198.332031 240.1875 238.738281 230.511719 270.546875 C 220.835938 302.355469 215.542969 367.355469 267.207031 343.496094 C 318.878906 319.632812 352.101562 283.402344 363.9375 311.136719 C 375.773438 338.871094 423.140625 351.351562 445.191406 345.511719 C 467.242188 339.667969 510.34375 312.238281 510.617188 333.558594 C 510.890625 354.875 543.195312 328.019531 560.792969 352.683594 C 578.386719 377.34375 574.398438 425.363281 600.402344 381.144531 C 626.40625 336.921875 655.71875 373.835938 634.699219 319.175781 C 613.679688 264.511719 618.253906 271.691406 613.40625 243.1875 C 608.566406 214.683594 559.046875 209.269531 554.089844 209.695312 C 549.132812 210.121094 581.285156 177.417969 595.386719 169.160156 C 609.480469 160.898438 590.613281 143.574219 571.0625 144.386719 C 551.507812 145.195312 561.882812 139.660156 550.894531 121.835938 C 539.898438 104.011719 548.347656 69.898438 524.375 69.363281 C 500.40625 68.828125 478.296875 69.824219 478.296875 69.824219 C 478.296875 69.824219 487.957031 62.144531 445.925781 63.839844 C 403.902344 65.535156 406.742188 18.125 389.34375 56.277344 C 371.941406 94.429688 368.023438 100.960938 337.980469 91.820312 C 307.9375 82.679688 263.832031 102.480469 284.816406 114.261719 "/>
<path style=" stroke:none;fill-rule:nonzero;fill:rgb(58.039856%,10.198975%,12.159729%);fill-opacity:1;" d="M 452.777344 488.765625 C 452.777344 488.765625 411.746094 461.800781 390.542969 499.757812 C 369.34375 537.71875 368.21875 484.28125 325.773438 503.226562 C 283.328125 522.171875 268.691406 532.199219 265.464844 542.800781 C 262.238281 553.40625 280.917969 596.738281 311.722656 568.457031 C 342.53125 540.183594 360.8125 524.507812 368.230469 550.898438 C 375.648438 577.289062 416.019531 546.125 390.515625 576.019531 C 365.011719 605.910156 407.609375 570.601562 409 600.953125 C 410.386719 631.296875 434.472656 647.316406 458.054688 611.046875 C 481.640625 574.78125 505.308594 608.046875 492.894531 569.515625 C 480.484375 530.984375 471.570312 525.375 477.640625 511.777344 C 483.703125 498.175781 454.125 484.347656 452.777344 488.765625 "/>
<path style=" stroke:none;fill-rule:nonzero;fill:rgb(58.039856%,10.198975%,12.159729%);fill-opacity:1;" d="M 631.0625 379.644531 C 631.0625 379.644531 630.035156 389.355469 621.78125 419.667969 C 613.523438 449.980469 607.292969 483.152344 648.34375 459.285156 C 689.394531 435.414062 701.921875 467.21875 705.066406 431.492188 C 708.214844 395.761719 714.9375 395.878906 699.03125 391.039062 C 683.128906 386.203125 666.339844 381.09375 666.339844 381.09375 L 644.015625 365.617188 C 644.015625 365.617188 632.429688 349.753906 631.0625 379.644531 "/>
<path style=" stroke:none;fill-rule:nonzero;fill:rgb(58.039856%,10.198975%,12.159729%);fill-opacity:1;" d="M 465.636719 389.378906 C 465.636719 389.378906 434.804688 382.152344 429.402344 405.015625 C 423.996094 427.875 426.386719 451.773438 464.410156 431.484375 C 502.441406 411.199219 527.800781 419.875 508.9375 402.550781 C 490.070312 385.226562 496.757812 394.988281 465.636719 389.378906 "/>
<path style=" stroke:none;fill-rule:nonzero;fill:rgb(58.039856%,10.198975%,12.159729%);fill-opacity:1;" d="M 559.75 456.410156 C 559.75 456.410156 549.5625 426.421875 527.304688 433.941406 C 505.046875 441.464844 486.035156 456.132812 523.378906 477.664062 C 560.722656 499.1875 566.78125 525.292969 571.492188 500.113281 C 576.207031 474.941406 571.46875 485.777344 559.75 456.410156 "/>
<path style=" stroke:none;fill-rule:nonzero;fill:rgb(58.039856%,10.198975%,12.159729%);fill-opacity:1;" d="M 351.0625 586.703125 C 351.0625 586.703125 296.417969 591.796875 273.808594 615.335938 C 251.203125 638.867188 288.183594 650.597656 317.28125 640.625 C 346.382812 630.65625 336.601562 636.367188 355.058594 649.222656 C 373.507812 662.074219 401.25 658.144531 393.8125 638.175781 C 386.371094 618.203125 388.386719 611.574219 379.300781 604.945312 C 370.214844 598.324219 371.230469 587.046875 361.148438 586.875 C 351.0625 586.703125 351.0625 586.703125 351.0625 586.703125 "/>
<path style=" stroke:none;fill-rule:nonzero;fill:rgb(53.729248%,9.408569%,11.369324%);fill-opacity:1;" d="M 81.070312 362.277344 C 81.070312 362.277344 55.582031 404.242188 94.273438 424.078125 C 132.957031 443.917969 79.597656 446.9375 100.039062 488.6875 C 120.484375 530.4375 131.023438 544.703125 141.734375 547.550781 C 152.445312 550.398438 195.085938 530.191406 165.730469 500.410156 C 136.371094 470.628906 120.058594 452.910156 146.167969 444.5625 C 172.277344 436.207031 139.703125 396.972656 170.480469 421.398438 C 201.261719 445.820312 164.457031 404.503906 194.738281 402.039062 C 225.019531 399.578125 240.167969 374.933594 203.085938 352.652344 C 166 330.375 198.402344 305.539062 160.339844 319.3125 C 122.277344 333.089844 116.988281 342.199219 103.175781 336.613281 C 89.371094 331.035156 76.605469 361.089844 81.070312 362.277344 "/>
<path style=" stroke:none;fill-rule:nonzero;fill:rgb(53.729248%,9.408569%,11.369324%);fill-opacity:1;" d="M 182.5625 460.445312 C 182.5625 460.445312 189.597656 514.875 213.921875 536.628906 C 238.242188 558.382812 248.65625 521.015625 237.652344 492.285156 C 226.652344 463.5625 232.710938 473.125 244.898438 454.230469 C 257.089844 435.332031 252.175781 407.746094 232.480469 415.890625 C 212.785156 424.039062 206.085938 422.261719 199.792969 431.578125 C 193.492188 440.890625 182.1875 440.277344 182.375 450.359375 C 182.5625 460.445312 182.5625 460.445312 182.5625 460.445312 "/>
<path style=" stroke:none;fill-rule:nonzero;fill:rgb(58.039856%,10.198975%,12.159729%);fill-opacity:1;" d="M 468.390625 626.257812 C 468.390625 626.257812 430.726562 629.484375 418.578125 644.03125 C 406.433594 658.574219 388.820312 683.140625 435.03125 662.929688 C 481.246094 642.71875 495.121094 632.023438 503.535156 629.730469 C 511.957031 627.445312 509.117188 619.339844 496.066406 617.785156 C 483.03125 616.230469 468.390625 626.257812 468.390625 626.257812 "/>
<path style=" stroke:none;fill-rule:nonzero;fill:rgb(58.039856%,10.198975%,12.159729%);fill-opacity:1;" d="M 593.078125 529.96875 C 593.078125 529.96875 555.414062 533.199219 543.261719 547.742188 C 531.117188 562.289062 513.503906 586.859375 559.71875 566.644531 C 605.929688 546.429688 619.804688 535.734375 628.226562 533.449219 C 636.644531 531.15625 633.800781 523.050781 620.757812 521.496094 C 607.714844 519.941406 593.078125 529.96875 593.078125 529.96875 "/>
<path style=" stroke:none;fill-rule:nonzero;fill:rgb(58.039856%,10.198975%,12.159729%);fill-opacity:1;" d="M 241.585938 139.726562 C 241.585938 139.726562 219.679688 142.722656 214.398438 156.921875 C 209.113281 171.113281 208.828125 187.921875 227.390625 191.160156 C 245.957031 194.394531 248.695312 212.359375 272.089844 191 C 295.484375 169.636719 291.511719 154.910156 291.511719 154.910156 C 291.511719 154.910156 283.628906 141.171875 277.507812 139.070312 C 271.394531 136.96875 249.90625 133.808594 241.585938 139.726562 "/>
</g>
</svg>
