<?xml version="1.0" encoding="UTF-8"?>
<svg xmlns="http://www.w3.org/2000/svg" xmlns:xlink="http://www.w3.org/1999/xlink" width="750pt" height="749.999995pt" viewBox="0 0 750 749.999995" version="1.2">
<defs>
<clipPath id="clip1">
  <path d="M 225 367 L 665 367 L 665 688 L 225 688 Z M 225 367 "/>
</clipPath>
<clipPath id="clip2">
  <path d="M -118.980469 283.109375 L 655.078125 -29.371094 L 873.785156 512.398438 L 99.726562 824.878906 Z M -118.980469 283.109375 "/>
</clipPath>
<clipPath id="clip3">
  <path d="M -118.980469 283.109375 L 655.078125 -29.371094 L 873.785156 512.398438 L 99.726562 824.878906 Z M -118.980469 283.109375 "/>
</clipPath>
<clipPath id="clip4">
  <path d="M -118.980469 283.109375 L 654.96875 -29.328125 L 873.621094 512.300781 L 99.671875 824.738281 Z M -118.980469 283.109375 "/>
</clipPath>
<clipPath id="clip5">
  <path d="M 181.105469 546.632812 L 658.578125 353.878906 L 743.726562 564.804688 L 266.253906 757.554688 Z M 181.105469 546.632812 "/>
</clipPath>
<clipPath id="clip6">
  <path d="M 181.105469 546.632812 L 658.578125 353.878906 L 742.957031 562.898438 L 265.484375 755.648438 Z M 181.105469 546.632812 "/>
</clipPath>
<clipPath id="clip7">
  <path d="M 92 114 L 642 114 L 642 583 L 92 583 Z M 92 114 "/>
</clipPath>
<clipPath id="clip8">
  <path d="M -118.980469 283.109375 L 655.078125 -29.371094 L 873.785156 512.398438 L 99.726562 824.878906 Z M -118.980469 283.109375 "/>
</clipPath>
<clipPath id="clip9">
  <path d="M -118.980469 283.109375 L 655.078125 -29.371094 L 873.785156 512.398438 L 99.726562 824.878906 Z M -118.980469 283.109375 "/>
</clipPath>
<clipPath id="clip10">
  <path d="M -118.980469 283.109375 L 654.96875 -29.328125 L 873.621094 512.300781 L 99.671875 824.738281 Z M -118.980469 283.109375 "/>
</clipPath>
<clipPath id="clip11">
  <path d="M 231 374 L 659 374 L 659 682 L 231 682 Z M 231 374 "/>
</clipPath>
<clipPath id="clip12">
  <path d="M -118.980469 283.109375 L 655.078125 -29.371094 L 873.785156 512.398438 L 99.726562 824.878906 Z M -118.980469 283.109375 "/>
</clipPath>
<clipPath id="clip13">
  <path d="M -118.980469 283.109375 L 655.078125 -29.371094 L 873.785156 512.398438 L 99.726562 824.878906 Z M -118.980469 283.109375 "/>
</clipPath>
<clipPath id="clip14">
  <path d="M -118.980469 283.109375 L 654.96875 -29.328125 L 873.621094 512.300781 L 99.671875 824.738281 Z M -118.980469 283.109375 "/>
</clipPath>
<clipPath id="clip15">
  <path d="M 196.691406 553.25 L 663.058594 364.980469 L 743.726562 564.804688 L 277.359375 753.074219 Z M 196.691406 553.25 "/>
</clipPath>
<clipPath id="clip16">
  <path d="M 196.691406 553.25 L 663.058594 364.980469 L 742.957031 562.898438 L 276.589844 751.164062 Z M 196.691406 553.25 "/>
</clipPath>
<clipPath id="clip17">
  <path d="M 98 121 L 636 121 L 636 576 L 98 576 Z M 98 121 "/>
</clipPath>
<clipPath id="clip18">
  <path d="M -118.980469 283.109375 L 655.078125 -29.371094 L 873.785156 512.398438 L 99.726562 824.878906 Z M -118.980469 283.109375 "/>
</clipPath>
<clipPath id="clip19">
  <path d="M -118.980469 283.109375 L 655.078125 -29.371094 L 873.785156 512.398438 L 99.726562 824.878906 Z M -118.980469 283.109375 "/>
</clipPath>
<clipPath id="clip20">
  <path d="M -118.980469 283.109375 L 654.96875 -29.328125 L 873.621094 512.300781 L 99.671875 824.738281 Z M -118.980469 283.109375 "/>
</clipPath>
<clipPath id="clip21">
  <path d="M 13 152 L 744 152 L 744 651 L 13 651 Z M 13 152 "/>
</clipPath>
<clipPath id="clip22">
  <path d="M -118.980469 283.109375 L 655.078125 -29.371094 L 873.785156 512.398438 L 99.726562 824.878906 Z M -118.980469 283.109375 "/>
</clipPath>
<clipPath id="clip23">
  <path d="M -118.980469 283.109375 L 655.078125 -29.371094 L 873.785156 512.398438 L 99.726562 824.878906 Z M -118.980469 283.109375 "/>
</clipPath>
<clipPath id="clip24">
  <path d="M -118.980469 283.109375 L 654.96875 -29.328125 L 873.621094 512.300781 L 99.671875 824.738281 Z M -118.980469 283.109375 "/>
</clipPath>
<clipPath id="clip25">
  <path d="M -61.640625 425.148438 L 715.640625 111.367188 L 823.195312 377.800781 L 45.917969 691.578125 Z M -61.640625 425.148438 "/>
</clipPath>
<clipPath id="clip26">
  <path d="M -61.640625 425.148438 L 711.867188 112.890625 L 819.421875 379.324219 L 45.917969 691.578125 Z M -61.640625 425.148438 "/>
</clipPath>
<clipPath id="clip27">
  <path d="M 20 158 L 737 158 L 737 644 L 20 644 Z M 20 158 "/>
</clipPath>
<clipPath id="clip28">
  <path d="M -118.980469 283.109375 L 655.078125 -29.371094 L 873.785156 512.398438 L 99.726562 824.878906 Z M -118.980469 283.109375 "/>
</clipPath>
<clipPath id="clip29">
  <path d="M -118.980469 283.109375 L 655.078125 -29.371094 L 873.785156 512.398438 L 99.726562 824.878906 Z M -118.980469 283.109375 "/>
</clipPath>
<clipPath id="clip30">
  <path d="M -118.980469 283.109375 L 654.96875 -29.328125 L 873.621094 512.300781 L 99.671875 824.738281 Z M -118.980469 283.109375 "/>
</clipPath>
<clipPath id="clip31">
  <path d="M -61.640625 425.148438 L 715.640625 111.367188 L 823.195312 377.800781 L 45.917969 691.578125 Z M -61.640625 425.148438 "/>
</clipPath>
<clipPath id="clip32">
  <path d="M -61.640625 425.148438 L 711.867188 112.890625 L 819.421875 379.324219 L 45.917969 691.578125 Z M -61.640625 425.148438 "/>
</clipPath>
</defs>
<g id="surface1">
<g clip-path="url(#clip1)" clip-rule="nonzero">
<g clip-path="url(#clip2)" clip-rule="nonzero">
<g clip-path="url(#clip3)" clip-rule="nonzero">
<g clip-path="url(#clip4)" clip-rule="nonzero">
<g clip-path="url(#clip5)" clip-rule="nonzero">
<g clip-path="url(#clip6)" clip-rule="nonzero">
<path style=" stroke:none;fill-rule:nonzero;fill:rgb(94.509888%,25.099182%,64.309692%);fill-opacity:1;" d="M 485.09375 666.996094 C 402.59375 700.300781 308.929688 693.578125 230.699219 646.488281 C 225.171875 643.171875 223.378906 635.976562 226.714844 630.496094 C 230.03125 624.96875 237.226562 623.175781 242.753906 626.492188 C 328.292969 677.945312 433.929688 676.957031 518.417969 623.839844 C 601.59375 571.601562 648.453125 478.246094 640.679688 380.269531 C 640.148438 373.828125 644.941406 368.210938 651.402344 367.722656 C 657.804688 367.203125 663.421875 371.996094 663.953125 378.441406 C 672.394531 485.074219 621.410156 586.699219 530.847656 643.632812 C 516.109375 652.859375 500.792969 660.65625 485.09375 666.996094 "/>
</g>
</g>
</g>
</g>
</g>
</g>
<g clip-path="url(#clip7)" clip-rule="nonzero">
<g clip-path="url(#clip8)" clip-rule="nonzero">
<g clip-path="url(#clip9)" clip-rule="nonzero">
<g clip-path="url(#clip10)" clip-rule="nonzero">
<path style=" stroke:none;fill-rule:nonzero;fill:rgb(94.509888%,25.099182%,64.309692%);fill-opacity:1;" d="M 166.839844 581.640625 C 162.15625 583.53125 156.574219 582.203125 153.277344 578.039062 C 147.210938 570.25 141.425781 562.046875 136.117188 553.648438 C 52.15625 420.007812 92.570312 242.96875 226.183594 158.972656 C 290.976562 118.292969 367.675781 105.234375 442.234375 122.238281 C 516.777344 139.199219 580.210938 184.246094 620.914062 248.957031 C 628.507812 261.023438 635.214844 273.644531 640.851562 286.601562 C 643.484375 292.496094 640.769531 299.390625 634.851562 301.980469 C 634.765625 302.015625 634.636719 302.070312 634.550781 302.105469 C 628.738281 304.453125 622.050781 301.753906 619.511719 295.96875 C 614.273438 284.117188 608.113281 272.480469 601.15625 261.371094 C 563.789062 201.917969 505.492188 160.597656 437.035156 144.964844 C 368.550781 129.390625 298.066406 141.351562 238.65625 178.75 C 115.898438 255.894531 78.78125 418.488281 155.917969 541.214844 C 160.753906 548.945312 166.066406 556.484375 171.664062 563.605469 C 175.640625 568.707031 174.761719 576.023438 169.65625 580 C 168.78125 580.707031 167.835938 581.238281 166.839844 581.640625 "/>
</g>
</g>
</g>
</g>
<g clip-path="url(#clip11)" clip-rule="nonzero">
<g clip-path="url(#clip12)" clip-rule="nonzero">
<g clip-path="url(#clip13)" clip-rule="nonzero">
<g clip-path="url(#clip14)" clip-rule="nonzero">
<g clip-path="url(#clip15)" clip-rule="nonzero">
<g clip-path="url(#clip16)" clip-rule="nonzero">
<path style=" stroke:none;fill-rule:nonzero;fill:rgb(98.039246%,74.899292%,88.62915%);fill-opacity:1;" d="M 482.605469 660.835938 C 402.015625 693.371094 310.566406 686.765625 234.136719 640.761719 C 231.753906 639.355469 231.015625 636.273438 232.421875 633.890625 C 233.847656 631.546875 236.914062 630.765625 239.3125 632.214844 C 326.996094 684.972656 435.339844 683.953125 521.96875 629.515625 C 607.273438 575.914062 655.285156 480.179688 647.332031 379.753906 C 647.113281 376.964844 649.132812 374.589844 651.917969 374.371094 C 654.644531 374.128906 657.082031 376.167969 657.300781 378.957031 C 665.5625 483.140625 615.734375 582.382812 527.292969 637.957031 C 512.929688 646.980469 497.960938 654.636719 482.605469 660.835938 "/>
</g>
</g>
</g>
</g>
</g>
</g>
<g clip-path="url(#clip17)" clip-rule="nonzero">
<g clip-path="url(#clip18)" clip-rule="nonzero">
<g clip-path="url(#clip19)" clip-rule="nonzero">
<g clip-path="url(#clip20)" clip-rule="nonzero">
<path style=" stroke:none;fill-rule:nonzero;fill:rgb(98.039246%,74.899292%,88.62915%);fill-opacity:1;" d="M 164.355469 575.484375 C 162.316406 576.304688 159.949219 575.695312 158.519531 573.902344 C 152.582031 566.316406 146.972656 558.292969 141.796875 550.09375 C 59.746094 419.566406 99.199219 246.648438 229.761719 164.589844 C 292.988281 124.894531 367.941406 112.136719 440.726562 128.746094 C 513.558594 145.339844 575.542969 189.304688 615.277344 252.492188 C 622.664062 264.289062 629.222656 276.667969 634.761719 289.261719 C 635.882812 291.785156 634.699219 294.730469 632.175781 295.851562 C 632.132812 295.867188 632.089844 295.886719 632.046875 295.902344 C 629.53125 296.917969 626.6875 295.746094 625.585938 293.265625 C 620.265625 281.09375 613.941406 269.171875 606.792969 257.835938 C 568.472656 196.902344 508.730469 154.5 438.5 138.472656 C 368.285156 122.488281 296.058594 134.75 235.0625 173.089844 C 109.207031 252.1875 71.191406 418.929688 150.238281 544.769531 C 155.25 552.679688 160.695312 560.417969 166.421875 567.738281 C 168.113281 569.929688 167.757812 573.050781 165.566406 574.742188 C 165.1875 575.046875 164.789062 575.308594 164.355469 575.484375 "/>
</g>
</g>
</g>
</g>
<g clip-path="url(#clip21)" clip-rule="nonzero">
<g clip-path="url(#clip22)" clip-rule="nonzero">
<g clip-path="url(#clip23)" clip-rule="nonzero">
<g clip-path="url(#clip24)" clip-rule="nonzero">
<g clip-path="url(#clip25)" clip-rule="nonzero">
<g clip-path="url(#clip26)" clip-rule="nonzero">
<path style=" stroke:none;fill-rule:nonzero;fill:rgb(51.368713%,84.309387%,96.469116%);fill-opacity:1;" d="M 234.488281 611.269531 C 224.644531 615.242188 214.988281 618.9375 205.523438 622.355469 C 135.695312 647.570312 46.949219 668.769531 20.335938 626.460938 C 2.746094 598.511719 20.75 553.015625 72.277344 494.84375 C 76.570312 489.984375 83.953125 489.527344 88.769531 493.835938 C 93.566406 498.101562 94.023438 505.480469 89.773438 510.324219 C 47.691406 557.773438 29.109375 596.59375 40.074219 614.003906 C 50.332031 630.289062 97.679688 636.492188 197.566406 600.402344 C 267.59375 575.058594 350.125 533.46875 430.0625 483.195312 C 509.972656 432.984375 583.28125 376.660156 636.417969 324.601562 C 712.238281 250.265625 727.210938 204.886719 716.957031 188.601562 C 705.695312 170.703125 661.097656 171.058594 597.71875 189.632812 C 591.488281 191.441406 585.015625 187.902344 583.226562 181.714844 C 581.417969 175.488281 584.914062 169.03125 591.144531 167.222656 C 668.464844 144.582031 718.808594 147.710938 736.757812 176.171875 C 763.34375 218.542969 705.769531 289.339844 652.726562 341.265625 C 598.433594 394.449219 523.753906 451.878906 442.492188 502.992188 C 371.910156 547.320312 299.25 585.125 234.488281 611.269531 "/>
</g>
</g>
</g>
</g>
</g>
</g>
<g clip-path="url(#clip27)" clip-rule="nonzero">
<g clip-path="url(#clip28)" clip-rule="nonzero">
<g clip-path="url(#clip29)" clip-rule="nonzero">
<g clip-path="url(#clip30)" clip-rule="nonzero">
<g clip-path="url(#clip31)" clip-rule="nonzero">
<g clip-path="url(#clip32)" clip-rule="nonzero">
<path style=" stroke:none;fill-rule:nonzero;fill:rgb(82.348633%,94.119263%,98.039246%);fill-opacity:1;" d="M 232.03125 605.050781 C 222.226562 609.007812 212.613281 612.6875 203.234375 616.070312 C 107.839844 650.542969 44.859375 652.972656 25.953125 622.882812 C 10.152344 597.738281 27.898438 554.972656 77.277344 499.230469 C 79.121094 497.175781 82.28125 497.011719 84.320312 498.808594 C 86.417969 500.636719 86.601562 503.839844 84.757812 505.894531 C 39.949219 556.460938 21.617188 597.148438 34.457031 617.582031 C 50.125 642.523438 111.9375 638.449219 199.855469 606.691406 C 270.269531 581.191406 353.261719 539.367188 433.617188 488.875 C 513.925781 438.398438 587.597656 381.726562 641.070312 329.378906 C 707.828125 263.949219 738.304688 209.992188 722.636719 185.046875 C 709.453125 164.144531 663.277344 163.46875 595.84375 183.230469 C 593.179688 184.003906 590.386719 182.457031 589.628906 179.835938 C 588.855469 177.171875 590.34375 174.355469 593.023438 173.625 C 644.726562 158.503906 710.660156 147.265625 731.078125 179.722656 C 749.984375 209.8125 720.519531 265.53125 648.074219 336.484375 C 594.117188 389.382812 519.863281 446.492188 438.941406 497.316406 C 368.6875 541.460938 296.355469 579.082031 232.03125 605.050781 "/>
</g>
</g>
</g>
</g>
</g>
</g>
</g>
</svg>
